<?xml version="1.0" encoding="UTF-8"?>
<svg width="1124px" height="485px" viewBox="0 0 1124 485" version="1.1" xmlns="http://www.w3.org/2000/svg" xmlns:xlink="http://www.w3.org/1999/xlink">
    <!-- Generator: Sketch 58 (84663) - https://sketch.com -->
    <title>Group 9</title>
    <desc>Created with Sketch.</desc>
    <defs>
        <path d="M298.483256,210.508741 C375.981627,210.508741 472.049057,177.664598 586.685547,111.97631 C472.049057,37.6529425 375.981627,0.491258741 298.483256,0.491258741 C220.984886,0.491258741 121.718983,35.6074115 0.685546875,105.839717 C121.718983,175.619067 220.984886,210.508741 298.483256,210.508741 Z" id="path-1"></path>
        <linearGradient x1="0%" y1="49.9886935%" x2="100%" y2="50.0113065%" id="linearGradient-3">
            <stop stop-color="#123131" offset="0%"></stop>
            <stop stop-color="#A3711C" offset="100%"></stop>
        </linearGradient>
        <filter x="-3.8%" y="-250.4%" width="107.5%" height="600.8%" filterUnits="objectBoundingBox" id="filter-4">
            <feGaussianBlur stdDeviation="3" in="SourceGraphic"></feGaussianBlur>
        </filter>
        <linearGradient x1="0%" y1="49.9536862%" x2="100%" y2="50.0463138%" id="linearGradient-5">
            <stop stop-color="#123131" offset="0%"></stop>
            <stop stop-color="#A3711C" offset="100%"></stop>
        </linearGradient>
        <filter x="-4.6%" y="-150.6%" width="109.2%" height="401.3%" filterUnits="objectBoundingBox" id="filter-6">
            <feGaussianBlur stdDeviation="3" in="SourceGraphic"></feGaussianBlur>
        </filter>
    </defs>
    <g id="Page-1" stroke="none" stroke-width="1" fill="none" fill-rule="evenodd">
        <g id="Desktop-HD" transform="translate(-269.000000, -3782.000000)">
            <g id="Group-9" transform="translate(277.000000, 3919.000000)">
                <g id="Group-4" transform="translate(271.000000, 0.000000)">
                    <mask id="mask-2" fill="white">
                        <use xlink:href="#path-1"></use>
                    </mask>
                    <use id="Mask" fill="#123131" xlink:href="#path-1"></use>
                    <g id="Group" mask="url(#mask-2)">
                        <g transform="translate(292.000000, 106.000000) rotate(-270.000000) translate(-292.000000, -106.000000) translate(192.000000, -194.000000)">
                            <g id="box-3" transform="translate(100.000000, 500.000000) rotate(-180.000000) translate(-100.000000, -500.000000) translate(0.000000, 400.000000)">
                                <rect id="Rectangle" x="0" y="1.13686838e-13" width="200" height="200"></rect>
                                <rect id="Rectangle" stroke="#FFB73E" fill="#0E0E0E" x="0" y="60" width="20" height="40"></rect>
                                <circle id="Oval" stroke="#FFB73E" cx="80" cy="80" r="40"></circle>
                                <rect id="Rectangle" stroke="#FFB73E" x="0" y="100" width="60" height="100"></rect>
                                <path d="M70,90 C81.045695,90 90,98.954305 90,110 L90,110 L50,110 L50.0029071,109.655511 C50.186775,98.7687286 59.0693643,90 70,90 Z" id="Combined-Shape" stroke="#FFB73E" transform="translate(70.000000, 100.000000) rotate(-90.000000) translate(-70.000000, -100.000000) "></path>
                                <path d="M90,90 C101.045695,90 110,98.954305 110,110 L110,110 L70,110 L70.0029071,109.655511 C70.186775,98.7687286 79.0693643,90 90,90 Z" id="Combined-Shape" stroke="#FFB73E" fill="#0E0E0E" transform="translate(90.000000, 100.000000) rotate(-270.000000) translate(-90.000000, -100.000000) "></path>
                                <path d="M80,80 C91.045695,80 100,88.954305 100,100 L100,100 L60,100 L60.0029071,99.6555106 C60.186775,88.7687286 69.0693643,80 80,80 Z" id="Combined-Shape" stroke="#FFB73E" fill="#1B5252"></path>
                                <polygon id="Rectangle" stroke="#FFB73E" fill="#0E0E0E" points="80 120 120 160 80 160"></polygon>
                                <polygon id="Rectangle" stroke="#FFB73E" fill="#1B5252" points="60 120 100 160 60 160"></polygon>
                                <polygon id="Rectangle" stroke="#FFB73E" fill="#0E0E0E" points="140 1.13686838e-13 200 1.13686838e-13 200 60"></polygon>
                                <polygon id="Rectangle" stroke="#FFB73E" points="140 20 180 20 180 60"></polygon>
                                <polygon id="Rectangle" stroke="#FFB73E" fill="#1B5252" transform="translate(130.000000, 70.000000) rotate(-180.000000) translate(-130.000000, -70.000000) " points="100 40 160 40 160 100"></polygon>
                                <rect id="Rectangle" stroke="#FFB73E" x="0" y="1.13686838e-13" width="80" height="60"></rect>
                                <rect id="Rectangle" stroke="#FFB73E" fill="#1B5252" x="20" y="40" width="20" height="20"></rect>
                                <path d="M80,40 L80,59.9994962 L45.0001514,59.9997409 C51.986366,48.0438797 65.0442688,40 80,40 L80,40 Z" id="Combined-Shape" stroke="#FFB73E" fill="#1B5252"></path>
                                <circle id="Oval" stroke="#FFB73E" cx="80" cy="80" r="40"></circle>
                                <rect id="Rectangle" stroke="#FFB73E" fill="#1B5252" x="160" y="40" width="40" height="60"></rect>
                                <polygon id="Rectangle" stroke="#FFB73E" points="140 20 180 20 180 60"></polygon>
                                <path d="M0,20 L80,20 C135.228475,20 180,64.771525 180,120 L180,200 L180,200 L0,200 L0,20 Z" id="Rectangle" stroke="#FFB73E"></path>
                                <polygon id="Rectangle" stroke="#FFB73E" points="100 40 160 40 160 100"></polygon>
                                <rect id="Rectangle" stroke="#FFB73E" fill="#0E0E0E" x="100" y="100" width="60" height="60"></rect>
                                <rect id="Rectangle" stroke="#FFB73E" fill="#1B5252" x="0" y="120" width="40" height="40"></rect>
                                <rect id="Rectangle" stroke="#FFB73E" x="20" y="140" width="140" height="60"></rect>
                                <path d="M100,140 L120,140 L120,160 L140,160 L140,180 L160,180 L160,200 L100,200 L100,180 L100,140 Z" id="Combined-Shape" stroke="#FFB73E" fill="#1B5252"></path>
                                <path d="M130,100 C146.568542,100 160,113.431458 160,130 L160,200 L160,200 L100,200 L100,130 C100,113.431458 113.431458,100 130,100 Z" id="Rectangle" stroke="#FFB73E"></path>
                                <polygon id="Rectangle" points="0 1.13686838e-13 200 1.13686838e-13 200 157.045548 200 200 0 200"></polygon>
                            </g>
                            <g id="box-2" transform="translate(100.000000, 310.000000) rotate(-90.000000) translate(-100.000000, -310.000000) translate(-10.000000, 210.000000)">
                                <rect id="Rectangle" x="20" y="0" width="200" height="200"></rect>
                                <rect id="Rectangle" stroke="#FFB73E" fill="#1B5252" x="80" y="60" width="80" height="80"></rect>
                                <polygon id="Rectangle" stroke="#FFB73E" stroke-linejoin="round" transform="translate(120.000000, 100.000000) rotate(-270.000000) translate(-120.000000, -100.000000) " points="80 60 160 140 80 140"></polygon>
                                <path d="M80,20 L80,40 L100,40 L100,59.999 L120,60 L120,80 L60,80 L60,60 L60,20 L80,20 Z" id="Combined-Shape" stroke="#FFB73E"></path>
                                <rect id="Rectangle" stroke="#FFB73E" fill="#0E0E0E" x="60" y="20" width="20" height="20"></rect>
                                <polygon id="Rectangle" stroke="#FFB73E" fill="#0E0E0E" stroke-linejoin="bevel" points="100 80 140 80 140 120"></polygon>
                                <polygon id="Rectangle" stroke="#FFB73E" stroke-linejoin="bevel" transform="translate(120.000000, 100.000000) rotate(-180.000000) translate(-120.000000, -100.000000) " points="100 80 140 80 140 120"></polygon>
                                <rect id="Rectangle" stroke="#FFB73E" x="20" y="80" width="80" height="60"></rect>
                                <path d="M99.999,120.001 L100,140 L80,140 L99.999,120.001 Z" id="Combined-Shape" stroke="#FFB73E" fill="#0E0E0E"></path>
                                <rect id="Rectangle" stroke="#FFB73E" fill="#1B5252" x="160" y="120" width="40" height="80"></rect>
                                <rect id="Rectangle" stroke="#FFB73E" x="20" y="160" width="200" height="40"></rect>
                                <path d="M160,100 C171.045695,100 180,108.954305 180,120 L180,200 L180,200 L160,200 L160,100 Z" id="Rectangle" stroke="#FFB73E"></path>
                                <rect id="Rectangle" stroke="#FFB73E" x="20" y="80" width="40" height="40"></rect>
                                <rect id="Rectangle" stroke="#FFB73E" fill="#1B5252" x="180" y="0" width="40" height="40"></rect>
                                <path d="M120,20 C144.850972,20 162.023519,20 171.517639,20 C181.011759,20 190.50588,20 200,20 L200,100 L120,100 L120,20 Z" id="Rectangle" stroke="#FFB73E"></path>
                                <rect id="Rectangle" stroke="#FFB73E" x="60" y="160" width="40" height="40"></rect>
                                <circle id="Oval" stroke="#FFB73E" fill="#0E0E0E" cx="20" cy="140" r="20"></circle>
                                <rect id="Rectangle" stroke="#FFB73E" x="60" y="140" width="60" height="20"></rect>
                                <path d="M60,140 C71.045695,140 80,148.954305 80,160 L80,160 L60,160 Z" id="Combined-Shape" stroke="#FFB73E" fill="#1B5252"></path>
                                <path d="M120,20 C131.045695,20 140,28.954305 140,40 L140,40 L120,40 Z" id="Combined-Shape" stroke="#FFB73E" fill="#0E0E0E" transform="translate(130.000000, 30.000000) rotate(-270.000000) translate(-130.000000, -30.000000) "></path>
                                <polygon id="Rectangle" stroke="#FFB73E" fill="#0E0E0E" stroke-linejoin="bevel" points="180 140 200 140 180 160"></polygon>
                                <polygon id="Rectangle" stroke="#FFB73E" stroke-linejoin="bevel" transform="translate(190.000000, 150.000000) rotate(-180.000000) translate(-190.000000, -150.000000) " points="180 140 200 140 180 160"></polygon>
                                <path d="M179.655511,159.997093 C168.768729,159.813225 160,150.930636 160,140 C160,128.954305 168.954305,120 180,120 C191.045695,120 200,128.954305 200,140 L200,140 L180,160 Z" id="Combined-Shape" stroke="#FFB73E"></path>
                                <polygon id="Rectangle" stroke="#FFB73E" fill="#1B5252" points="60 0 60 40 20 40"></polygon>
                                <polygon id="Rectangle" stroke="#FFB73E" points="80 40 80 80 20 80"></polygon>
                                <path d="M80,20 L80,40 L100,40 L100,59.999 L120,60 L120,80 L60,80 L60,60 L60,20 L80,20 Z" id="Combined-Shape" stroke="#FFB73E"></path>
                                <polygon id="Rectangle" stroke="#FFB73E" fill="#0E0E0E" transform="translate(50.000000, 60.000000) rotate(-180.000000) translate(-50.000000, -60.000000) " points="80 40 80 80 20 80"></polygon>
                                <rect id="Rectangle" fill="#1B5252" x="160" y="40" width="20" height="20"></rect>
                                <rect id="Rectangle" stroke="#FFB73E" stroke-width="2" x="20" y="0" width="200" height="200" rx="100"></rect>
                            </g>
                            <g id="Group-2">
                                <rect id="Rectangle" transform="translate(100.000000, 100.000000) rotate(-90.000000) translate(-100.000000, -100.000000) " x="0" y="0" width="200" height="200"></rect>
                                <rect id="Rectangle" stroke="#0E0E0E" transform="translate(20.000000, 120.000000) rotate(-90.000000) translate(-20.000000, -120.000000) " x="0" y="100" width="40" height="40"></rect>
                                <path d="M136,-10 C165.823376,-10 190,14.1766235 190,44 L190,150 L50,150 L50,-10 L136,-10 Z M170,110 L150,110 L150,150 L190,150 L189.999,129.999 L170,130 L170,110 Z" id="Combined-Shape" stroke="#FFB73E" transform="translate(120.000000, 70.000000) rotate(-90.000000) translate(-120.000000, -70.000000) "></path>
                                <rect id="Rectangle" transform="translate(100.000000, 150.000000) rotate(-90.000000) translate(-100.000000, -150.000000) " x="50" y="50" width="100" height="200"></rect>
                                <polygon id="Rectangle" stroke="#FFB73E" transform="translate(50.000000, 100.000000) rotate(-360.000000) translate(-50.000000, -100.000000) " points="4.18194114e-12 -1.54321e-12 100 -1.54321e-12 100 200 4.18194114e-12 200"></polygon>
                                <rect id="Rectangle" stroke="#FFB73E" transform="translate(100.000000, 150.000000) rotate(-90.000000) translate(-100.000000, -150.000000) " x="50" y="50" width="100" height="200"></rect>
                                <rect id="Rectangle" stroke="#FFB73E" transform="translate(100.000000, 100.000000) rotate(-90.000000) translate(-100.000000, -100.000000) " x="80" y="60" width="40" height="80" rx="16"></rect>
                                <path d="M30,90 L131.910765,91.21442 C164.103924,91.5980499 190,117.804555 190,150 L190,150 L190,150 L30,150 L30,90 Z" id="Rectangle" stroke="#FFB73E" transform="translate(110.000000, 120.000000) scale(-1, 1) rotate(-90.000000) translate(-110.000000, -120.000000) "></path>
                                <rect id="Rectangle" stroke="#FFB73E" transform="translate(100.000000, 80.000000) rotate(-90.000000) translate(-100.000000, -80.000000) " x="60" y="60" width="80" height="40"></rect>
                                <rect id="Rectangle" stroke="#FFB73E" fill="#1B5252" transform="translate(110.000000, 110.000000) rotate(-90.000000) translate(-110.000000, -110.000000) " x="100" y="100" width="20" height="20"></rect>
                                <polygon id="Rectangle" stroke="#FFB73E" fill="#1B5252" transform="translate(70.000000, 130.000000) rotate(-90.000000) translate(-70.000000, -130.000000) " points="40 100 100 100 100 160"></polygon>
                                <polygon id="Rectangle" stroke="#FFB73E" fill="#1B5252" transform="translate(70.000000, 180.000000) rotate(-90.000000) translate(-70.000000, -180.000000) " points="30 150 110 150 110 210"></polygon>
                                <rect id="Rectangle" stroke="#FFB73E" transform="translate(20.000000, 170.000000) rotate(-90.000000) translate(-20.000000, -170.000000) " x="-10" y="150" width="60" height="40"></rect>
                                <path d="M70,30 C70,41.045695 61.045695,50 50,50 C38.954305,50 30,41.045695 30,30 L30,30 Z" id="Combined-Shape" stroke="#FFB73E" fill="#0E0E0E" transform="translate(50.000000, 40.000000) rotate(-90.000000) translate(-50.000000, -40.000000) "></path>
                                <rect id="Rectangle" stroke="#FFB73E" transform="translate(40.000000, 60.000000) rotate(-90.000000) translate(-40.000000, -60.000000) " x="20" y="20" width="40" height="80"></rect>
                                <path d="M50,-10 L136,-10 C165.823376,-10 190,14.1766235 190,44 L190,150 L190,150 L50,150 L50,-10 Z" id="Rectangle" stroke="#FFB73E" transform="translate(120.000000, 70.000000) rotate(-90.000000) translate(-120.000000, -70.000000) "></path>
                                <path d="M60,40 C60,51.045695 51.045695,60 40,60 C28.954305,60 20,51.045695 20,40 L20,40 Z" id="Combined-Shape" stroke="#FFB73E" transform="translate(40.000000, 50.000000) rotate(-360.000000) translate(-40.000000, -50.000000) "></path>
                                <rect id="Rectangle" stroke="#FFB73E" fill="#1B5252" transform="translate(120.000000, 160.000000) rotate(-90.000000) translate(-120.000000, -160.000000) " x="100" y="140" width="40" height="40"></rect>
                                <rect id="Rectangle" stroke="#FFB73E" fill="#0E0E0E" transform="translate(90.000000, 129.500000) rotate(-90.000000) translate(-90.000000, -129.500000) " x="80" y="120" width="20" height="19"></rect>
                                <rect id="Rectangle" stroke="#FFB73E" fill="#1B5252" transform="translate(150.000000, 80.000000) rotate(-90.000000) translate(-150.000000, -80.000000) " x="130" y="50" width="40" height="60"></rect>
                                <path d="M90,90 L190,90 C223.137085,90 250,116.862915 250,150 L250,150 L250,150 L90,150 L90,90 Z" id="Rectangle" stroke="#FFB73E" transform="translate(170.000000, 120.000000) rotate(-90.000000) translate(-170.000000, -120.000000) "></path>
                                <path d="M140.000112,60.0001116 C155.365623,60.0001116 169.384446,65.7781322 179.999888,75.280323 L179.998219,100.000112 L140.000112,100.000112 L140.000112,60.0001116 Z" id="Combined-Shape" stroke="#FFB73E" fill="#0E0E0E" transform="translate(160.000000, 80.000112) rotate(-90.000000) translate(-160.000000, -80.000112) "></path>
                                <rect id="Rectangle" stroke="#FFB73E" fill="#1B5252" transform="translate(180.000000, 140.000000) rotate(-90.000000) translate(-180.000000, -140.000000) " x="160" y="120" width="40" height="40"></rect>
                                <polygon id="Rectangle" stroke="#FFB73E" fill="#0E0E0E" transform="translate(130.000000, 30.000000) rotate(-90.000000) translate(-130.000000, -30.000000) " points="120 20 140 40 120 40"></polygon>
                                <polygon id="Rectangle" stroke="#FFB73E" fill="#0E0E0E" transform="translate(130.000000, 10.000000) rotate(-90.000000) translate(-130.000000, -10.000000) " points="120 0 140 20 120 20"></polygon>
                                <rect id="Rectangle" stroke="#FFB73E" fill="#0E0E0E" transform="translate(30.000000, 170.000000) rotate(-90.000000) translate(-30.000000, -170.000000) " x="20" y="160" width="20" height="20"></rect>
                                <path d="M40,160 L40,160.001 L1,199 L1,160 L40,160 Z" id="Combined-Shape" stroke="#FFB73E" fill="#1B5252"></path>
                                <rect id="Rectangle" stroke="#FFB73E" transform="translate(30.000000, 170.000000) rotate(-90.000000) translate(-30.000000, -170.000000) " x="20" y="160" width="20" height="20"></rect>
                                <polygon id="Rectangle" stroke="#FFB73E" fill="#0E0E0E" transform="translate(180.000000, 180.000000) rotate(-90.000000) translate(-180.000000, -180.000000) " points="160 160 200 200 160 200"></polygon>
                                <rect id="Rectangle" stroke="#FFB73E" transform="translate(10.000000, 150.000000) rotate(-90.000000) translate(-10.000000, -150.000000) " x="0" y="140" width="20" height="20"></rect>
                            </g>
                        </g>
                    </g>
                </g>
                <path d="M565.368635,348 C669.475239,348 785.086406,308.474119 916.290106,233.292592 L1115.40783,119.195394 L922.846741,-5.64957042 C790.332344,-91.5638913 672.874529,-137 565.368635,-137 C460.479116,-137 341.977681,-95.0791152 204.420376,-15.2584721 L-4.93342432,106.223662 L204.760219,227.118239 C342.245522,306.382576 460.652795,348 565.368635,348 Z M565.368635,208 C489.721762,208 392.827399,173.943867 274.685547,105.831601 C392.827399,37.2772003 489.721762,3 565.368635,3 C641.015509,3 734.787813,39.273862 846.685547,111.821586 C734.787813,175.940529 641.015509,208 565.368635,208 Z" id="borders" fill="#FFB73E" fill-rule="nonzero"></path>
                <path d="M565.368635,348 C669.475239,348 785.086406,308.474119 916.290106,233.292592 L1115.40783,119.195394 L922.846741,-5.64957042 C790.332344,-91.5638913 672.874529,-137 565.368635,-137 C460.479116,-137 341.977681,-95.0791152 204.420376,-15.2584721 L-4.93342432,106.223662 L204.760219,227.118239 C342.245522,306.382576 460.652795,348 565.368635,348 Z M565.368635,208 C489.721762,208 392.827399,173.943867 274.685547,105.831601 C392.827399,37.2772003 489.721762,3 565.368635,3 C641.015509,3 734.787813,39.273862 846.685547,111.821586 C734.787813,175.940529 641.015509,208 565.368635,208 Z" id="borders" fill="#F1A82F" fill-rule="nonzero"></path>
                <path d="M565.368635,328 C665.409563,328 777.900892,289.540749 906.346598,215.939591 L1077.01893,118.141993 L911.96657,11.1320233 C782.397411,-72.8727837 668.32324,-117 565.368635,-117 C464.656637,-117 349.241927,-76.1710701 214.458258,2.04010982 L35.012143,106.167653 L214.749552,209.791576 C349.471505,287.46276 464.805504,328 565.368635,328 Z M565.368635,208 C489.721762,208 392.827399,173.943867 274.685547,105.831601 C392.827399,37.2772003 489.721762,3 565.368635,3 C641.015509,3 734.787813,39.273862 846.685547,111.821586 C734.787813,175.940529 641.015509,208 565.368635,208 Z" id="borders" fill="#D89A32" fill-rule="nonzero"></path>
                <path d="M565.368635,308 C661.343887,308 770.715379,270.607379 896.403089,198.58659 L1038.63003,117.088592 L901.0864,27.9136171 C774.462478,-54.1816761 663.771951,-97 565.368635,-97 C468.834158,-97 356.506172,-57.263025 224.496139,19.3386917 L74.9577103,106.111645 L224.738884,192.464914 C356.697487,268.542945 468.958214,308 565.368635,308 Z M565.368635,208 C489.721762,208 392.827399,173.943867 274.685547,105.831601 C392.827399,37.2772003 489.721762,3 565.368635,3 C641.015509,3 734.787813,39.273862 846.685547,111.821586 C734.787813,175.940529 641.015509,208 565.368635,208 Z" id="borders" fill="#BD8A34" fill-rule="nonzero"></path>
                <path d="M565.368635,288 C657.278212,288 763.529866,251.674009 886.459581,181.233589 L1000.24114,116.035191 L890.206229,44.6952109 C766.527545,-35.4905685 659.220663,-77 565.368635,-77 C473.011679,-77 363.770418,-38.3549799 234.534021,36.6372736 L114.903278,106.055636 L234.728217,175.138251 C363.923469,249.623129 473.110924,288 565.368635,288 Z M565.368635,208 C489.721762,208 392.827399,173.943867 274.685547,105.831601 C392.827399,37.2772003 489.721762,3 565.368635,3 C641.015509,3 734.787813,39.273862 846.685547,111.821586 C734.787813,175.940529 641.015509,208 565.368635,208 Z" id="borders" fill="#9D7A40" fill-rule="nonzero"></path>
                <path d="M565.368635,268 C653.212536,268 756.344353,232.740639 876.516072,163.880589 L961.852239,114.98179 L879.326058,61.4768046 C758.592612,-16.7994608 654.669374,-57 565.368635,-57 C477.189199,-57 371.034663,-19.4469349 244.571902,53.9358554 L154.848845,105.999627 L244.717549,157.811589 C371.149452,230.703314 477.263633,268 565.368635,268 Z M565.368635,208 C489.721762,208 392.827399,173.943867 274.685547,105.831601 C392.827399,37.2772003 489.721762,3 565.368635,3 C641.015509,3 734.787813,39.273862 846.685547,111.821586 C734.787813,175.940529 641.015509,208 565.368635,208 Z" id="borders" fill="#335353" fill-rule="nonzero"></path>
                <path d="M565.368635,248 C649.14686,248 749.158839,213.807269 866.572564,146.527588 L923.463342,113.928388 L868.445888,78.2583984 C750.657679,1.89164676 650.118086,-37 565.368635,-37 C481.36672,-37 378.298908,-0.538889795 254.609784,71.2344373 L194.794412,105.943619 L254.706882,140.484926 C378.375434,211.783498 481.416343,248 565.368635,248 Z M565.368635,208 C489.721762,208 392.827399,173.943867 274.685547,105.831601 C392.827399,37.2772003 489.721762,3 565.368635,3 C641.015509,3 734.787813,39.273862 846.685547,111.821586 C734.787813,175.940529 641.015509,208 565.368635,208 Z" id="borders" fill="#183E3E" fill-rule="nonzero"></path>
                <path d="M565.368635,228 C645.081184,228 741.973326,194.873899 856.629055,129.174587 L885.074444,112.874987 L857.565717,95.0399921 C742.722746,20.5827544 645.566797,-17 565.368635,-17 C485.544241,-17 385.563154,18.3691553 264.647665,88.5330192 L234.73998,105.88761 L264.696214,123.158264 C385.601417,192.863683 485.569052,228 565.368635,228 Z M565.368635,208 C489.721762,208 392.827399,173.943867 274.685547,105.831601 C392.827399,37.2772003 489.721762,3 565.368635,3 C641.015509,3 734.787813,39.273862 846.685547,111.821586 C734.787813,175.940529 641.015509,208 565.368635,208 Z" id="borders" fill="#123131" fill-rule="nonzero"></path>
                <g id="Group-6" transform="translate(0.000000, 103.000000)" opacity="0.322591146" stroke-linecap="square" stroke-width="3">
                    <path d="M0.490774908,0.5 L265.509225,3.5" id="Line-4" stroke="url(#linearGradient-3)" filter="url(#filter-4)" transform="translate(133.000000, 2.000000) scale(-1, 1) translate(-133.000000, -2.000000) "></path>
                    <path d="M876,9 L1106,16" id="Line-4" stroke="url(#linearGradient-5)" filter="url(#filter-6)"></path>
                </g>
            </g>
        </g>
    </g>
</svg>